HIERARCHY
ROOT hip
{
	OFFSET 0.000000 0.000000 0.000000 
	CHANNELS 6 Xposition Yposition Zposition Xrotation Zrotation Yrotation
	JOINT abdomen
	{
		OFFSET 0.000000 3.402643 0.000000 
		CHANNELS 3 Xrotation Zrotation Yrotation
		JOINT chest
		{
			OFFSET 0.000000 8.438565 -0.680529 
			CHANNELS 3 Xrotation Zrotation Yrotation
			JOINT neck
			{
				OFFSET 0.000000 10.207942 -0.272212 
				CHANNELS 3 Xrotation Zrotation Yrotation
				JOINT head
				{
					OFFSET 0.000000 3.130431 0.000000 
					CHANNELS 3 Xrotation Zrotation Yrotation
					End Site
					{
						OFFSET 0.000000 3.130435 0.000000 
					}
				}
			}
			JOINT lCollar
			{
				OFFSET 3.470700 6.669187 -0.816635 
				CHANNELS 3 Yrotation Zrotation Xrotation
				JOINT lShldr
				{
					OFFSET 3.198488 0.000000 0.000000 
					CHANNELS 3 Zrotation Yrotation Xrotation
					JOINT lForeArm
					{
						OFFSET 10.139888 0.000000 0.000000 
						CHANNELS 3 Yrotation Zrotation Xrotation
						JOINT lHand
						{
							OFFSET 8.370511 0.000000 0.000000 
							CHANNELS 3 Zrotation Yrotation Xrotation
							End Site
							{
								OFFSET 4.083176 0.000000 0.000000 
							}
						}
					}
				}
			}
			JOINT rCollar
			{
				OFFSET -3.470700 6.669187 -0.816635 
				CHANNELS 3 Yrotation Zrotation Xrotation
				JOINT rShldr
				{
					OFFSET -3.198488 0.000000 0.000000 
					CHANNELS 3 Zrotation Yrotation Xrotation
					JOINT rForeArm
					{
						OFFSET -10.139888 0.000000 0.000000 
						CHANNELS 3 Yrotation Zrotation Xrotation
						JOINT rHand
						{
							OFFSET -8.370511 0.000000 0.000000 
							CHANNELS 3 Zrotation Yrotation Xrotation
							End Site
							{
								OFFSET -4.083176 0.000000 0.000000 
							}
						}
					}
				}
			}
		}
	}
	JOINT lThigh
	{
		OFFSET 5.308129 -1.633274 1.361059 
		CHANNELS 3 Xrotation Zrotation Yrotation
		JOINT lShin
		{
			OFFSET -2.041588 -20.007561 0.000000 
			CHANNELS 3 Xrotation Zrotation Yrotation
			JOINT lFoot
			{
				OFFSET 0.000000 -19.190928 -1.224953 
				CHANNELS 3 Xrotation Yrotation Zrotation
				End Site
				{
					OFFSET 0.000000 -2.449906 4.627600 
				}
			}
		}
	}
	JOINT rThigh
	{
		OFFSET -5.308129 -1.633274 1.361059 
		CHANNELS 3 Xrotation Zrotation Yrotation
		JOINT rShin
		{
			OFFSET 2.041588 -20.007561 0.000000 
			CHANNELS 3 Xrotation Zrotation Yrotation
			JOINT rFoot
			{
				OFFSET 0.000000 -19.190928 -1.224953 
				CHANNELS 3 Xrotation Yrotation Zrotation
				End Site
				{
					OFFSET 0.000000 -2.449906 4.627600 
				}
			}
		}
	}
}
MOTION
Frames: 18
Frame Time: 0.033333
88.632904 41.496838 88.632904 177.211609 2.253661 -72.053345 80.882263 -0.525195 9.230149 30.435549 1.996570 -18.607395 -8.544922 -0.001505 -0.009645 38.549435 -1.682866 13.539629 2.000000 -2.000000 0.000000 -68.503494 -50.716980 -19.908962 -103.500328 -0.562487 9.114639 -9.859543 -4.372336 19.805552 -2.000000 2.000000 0.000000 117.993759 27.631334 36.650677 83.033249 0.512181 8.918171 43.131329 5.755469 -54.548649 -49.649525 19.030491 -3.668303 119.777855 4.467000 -3.500719 -14.472601 -9.788470 -8.169199 -45.037674 -4.092099 -2.463117 108.539680 -3.801651 3.886981 -57.366459 -2.480307 -2.095493 
97.437935 40.069294 97.437943 -179.404953 15.468331 -73.893761 80.393166 -5.822298 15.268666 26.377823 0.978890 -18.798485 -8.544922 -0.001505 -0.009645 35.927105 7.198177 11.468860 2.000000 -2.000000 0.000000 -60.984055 -51.297787 -13.565654 -101.724487 -0.561698 9.099734 -10.832563 -5.544876 9.553855 -2.000000 2.000000 0.000000 116.900543 31.229616 30.000441 81.244308 0.507907 8.886023 40.193756 5.364637 -59.616951 -51.346573 18.281151 -3.635706 122.966423 4.644421 -3.367332 -18.170519 -9.088609 -8.063271 -48.198662 -4.218180 -1.643963 113.521652 -4.129873 3.716497 -56.584751 -2.304851 -3.391892 
106.753922 38.887276 106.753914 4.124341 151.985245 104.970818 78.454903 -11.860145 21.418539 21.303061 -0.238582 -18.649103 -8.544922 -0.001505 -0.009645 33.916756 16.052946 7.330247 2.000000 -2.000000 0.000000 -55.442394 -52.498569 -4.301832 -99.600807 -0.551749 9.076934 -11.537711 -6.983284 -1.554613 -2.000000 2.000000 0.000000 113.324760 33.704597 21.131929 78.969032 0.502899 8.866052 37.266270 4.267478 -64.380882 -51.792419 17.537861 -3.250488 124.590889 4.740697 -3.283106 -22.311176 -8.305500 -8.029667 -51.549404 -4.277068 -0.733836 118.927650 -4.461204 3.496048 -54.551361 -2.082364 -4.846901 
115.203293 37.805527 115.203293 9.717556 140.455856 105.643394 75.559151 -16.426805 25.786304 16.528318 -1.313637 -18.210085 -8.544922 -0.001505 -0.009645 30.870754 21.915104 2.100036 2.000000 -2.000000 0.000000 -51.332043 -54.719444 4.192850 -97.226341 -0.539009 9.049870 -11.906670 -8.612749 -13.354646 -2.000000 2.000000 0.000000 107.101532 35.129864 13.271333 76.272194 0.504644 8.835003 34.463890 2.606952 -68.805771 -51.420906 16.805315 -2.683640 124.913559 4.749542 -3.278938 -26.563272 -7.505917 -7.950346 -54.917751 -4.286531 0.226949 124.551926 -4.782865 3.262269 -51.710789 -1.915916 -6.388290 
121.373901 37.404854 121.373901 20.298531 130.594269 110.410439 73.024193 -17.289663 26.475277 13.399333 -1.894747 -17.651697 -8.544922 -0.001505 -0.009645 26.091583 22.418699 -1.849643 2.000000 -2.000000 0.000000 -46.052620 -57.406212 6.646655 -94.568169 -0.534966 9.025912 -11.923694 -10.353210 -25.740582 -2.000000 2.000000 0.000000 99.238182 36.876450 10.275987 73.239021 0.511033 8.803213 31.828255 0.441825 -72.855453 -50.632004 16.102909 -2.072233 124.307144 4.713111 -3.300301 -30.786930 -6.740610 -7.839205 -58.161507 -4.267534 1.200871 130.073212 -5.075553 2.998430 -48.412739 -1.772389 -7.821664 
125.405754 37.434853 125.405754 -141.213608 57.168903 -57.897930 71.036903 -14.956224 23.818010 11.646858 -2.062525 -17.039078 -8.544922 -0.001505 -0.009645 20.771437 18.966677 -2.823526 2.000000 -2.000000 0.000000 -38.094677 -59.053795 2.776205 -91.702560 -0.522190 8.998158 -11.579925 -12.108113 -38.489685 -2.000000 2.000000 0.000000 91.281654 39.938896 12.102349 69.960533 0.511669 8.778152 29.412149 -2.117431 -76.535011 -49.828339 15.428219 -1.494639 123.005562 4.644459 -3.366817 -34.642029 -6.051576 -7.654258 -61.120064 -4.159793 2.200081 135.305359 -5.328657 2.714945 -45.085144 -1.611265 -9.109177 
128.345856 36.843784 128.345856 -113.593430 61.271320 -37.742432 68.708260 -11.582799 19.709423 10.112887 -2.119107 -16.334763 -8.544922 -0.001505 -0.009645 16.080091 14.749974 -1.495347 2.000000 -2.000000 0.000000 -29.501120 -59.140926 -2.423708 -88.695236 -0.520440 8.968988 -10.884905 -13.786934 -51.450603 -2.000000 2.000000 0.000000 84.498795 43.927166 16.414574 66.487495 0.521190 8.742525 27.229074 -4.979845 -79.872971 -49.493416 14.812061 -1.061266 121.381424 4.554977 -3.445093 -37.916122 -5.506400 -7.466475 -63.589806 -4.052668 3.219456 139.952499 -5.523185 2.463249 -42.138573 -1.438422 -10.107571 
130.534470 35.481499 130.534470 -82.907761 59.089470 -15.155076 65.923004 -7.684545 14.334472 8.787311 -2.074231 -15.547910 -8.544922 -0.001505 -0.009645 11.766420 10.813325 1.964472 2.000000 -2.000000 0.000000 -21.143347 -57.668617 -7.461055 -85.535690 -0.509209 8.934007 -9.882385 -15.314251 -64.482239 -2.000000 2.000000 0.000000 80.168633 49.179321 23.326868 62.942787 0.524839 8.703278 25.293530 -8.024737 -82.879608 -49.946621 14.256626 -0.858264 119.719147 4.457313 -3.507640 -40.408123 -5.104384 -7.305978 -65.437416 -3.993851 4.221360 143.759689 -5.689431 2.239726 -39.917694 -1.203186 -10.749426 
132.192307 33.413006 132.192307 -58.963963 51.491203 0.099800 62.595440 -3.773529 7.958250 7.658746 -1.947221 -14.725571 -8.544922 -0.001505 -0.009645 7.726413 8.046142 7.124231 2.000000 -2.000000 0.000000 -13.884606 -54.980377 -11.013225 -82.286591 -0.507019 8.897565 -8.660147 -16.624664 -77.375374 -2.000000 2.000000 0.000000 79.920853 55.489971 33.440086 59.400761 0.536557 8.664564 23.600266 -11.177958 -85.596962 -51.646202 13.817243 -1.031180 118.321495 4.369623 -3.551933 -41.823048 -4.872886 -7.290754 -66.527901 -3.945336 5.189107 146.479370 -5.784721 2.067953 -38.870960 -0.840330 -10.922453 
133.684738 30.958839 133.684738 -42.378063 41.327297 7.384017 58.804581 -0.283089 0.830129 6.706709 -1.777462 -13.892354 -8.544922 -0.001505 -0.009645 4.038680 7.000145 13.318603 2.000000 -2.000000 0.000000 -7.841527 -51.630871 -12.691589 -78.978729 -0.509344 8.863885 -7.305142 -17.708721 -89.906303 -2.000000 2.000000 0.000000 86.131432 61.962719 48.355560 55.900116 0.548398 8.635164 22.134888 -14.342052 -88.073418 -54.951946 13.455238 -1.582539 117.490196 4.313013 -3.597762 -41.970470 -4.775998 -7.412576 -66.633202 -3.985351 6.156904 147.863708 -5.828038 1.993263 -39.378204 -0.404900 -10.509577 
135.152802 28.389410 135.152786 -30.230659 30.561886 9.691985 54.739586 2.415806 -6.711421 5.939038 -1.555212 -13.087989 -8.544922 -0.001505 -0.009645 0.954967 7.793534 19.757465 2.000000 -2.000000 0.000000 -2.903245 -48.224621 -12.502449 -75.647209 -0.514860 8.835365 -5.909909 -18.563690 -101.906769 -2.000000 2.000000 0.000000 101.532684 66.941841 70.429184 52.565613 0.564765 8.600937 20.902540 -17.429581 -90.353317 -62.913986 13.299641 -3.380642 116.698372 4.292350 -3.611316 -38.069553 -5.159362 -8.366959 -64.144791 -4.326701 7.177183 145.910019 -5.774762 2.104733 -43.479313 0.016378 -8.199716 
137.000366 26.195650 137.000366 -20.485609 20.390802 9.188526 50.700699 4.195692 -14.187058 5.315614 -1.319861 -12.340978 -8.544922 -0.001505 -0.009645 -1.317937 10.154008 25.757582 2.000000 -2.000000 0.000000 1.452133 -45.346592 -11.164535 -72.364044 -0.513656 8.803497 -4.559566 -19.244701 -113.158211 -2.000000 2.000000 0.000000 -55.375057 111.718948 -81.916756 49.446339 0.577680 8.572261 19.883421 -20.332331 -92.471886 -75.876823 12.899889 -6.591757 115.271515 4.213367 -3.655018 -29.386322 -6.093694 -10.255198 -58.408173 -5.176541 8.228998 139.903000 -5.529034 2.480383 -51.471424 -0.254146 -3.628836 
139.138992 24.758204 139.138992 -12.230665 11.480644 7.188882 47.025318 5.068094 -21.094223 4.844334 -1.100109 -11.672731 -8.544922 -0.001505 -0.009645 -2.789912 13.549786 30.781883 2.000000 -2.000000 0.000000 5.332819 -43.378059 -9.066600 -69.141220 -0.519143 8.767451 -3.295749 -19.779345 -123.459114 -2.000000 2.000000 0.000000 -33.941132 114.287071 -57.758923 46.655445 0.593499 8.543026 19.094193 -22.989382 -94.502357 -90.289673 11.659992 -10.098877 113.307419 4.067999 -3.739477 -18.794245 -7.304543 -12.335850 -50.909397 -6.318826 9.099808 131.443634 -5.150428 2.949413 -61.158974 -1.957529 1.805975 
141.022476 24.262360 141.022476 -5.239223 4.279843 4.618126 44.040035 5.305984 -26.876148 4.503825 -0.905232 -11.109101 -8.544922 -0.001505 -0.009645 -3.717697 17.316633 34.467503 2.000000 -2.000000 0.000000 9.078959 -43.114449 -7.090054 -66.002853 -0.520461 8.739384 -2.189042 -20.244596 -132.597061 -2.000000 2.000000 0.000000 -19.211950 118.660316 -41.760864 44.239273 0.607367 8.530013 18.499128 -25.295263 -96.452965 -102.685211 9.912146 -12.820183 110.903763 3.935216 -3.815466 -8.992181 -8.383068 -13.965898 -43.040112 -7.538941 9.642653 122.096024 -4.646781 3.374070 -70.330299 -4.916034 6.720975 
142.314896 24.823313 142.314896 0.322317 -0.937081 2.367614 41.908993 5.215549 -31.040720 4.274031 -0.774179 -10.688603 -8.544922 -0.001505 -0.009645 -4.527451 20.805010 36.540981 2.000000 -2.000000 0.000000 12.865974 -44.073643 -5.944888 -63.044968 -0.531946 8.705422 -1.251468 -20.689621 -140.374573 -2.000000 2.000000 0.000000 -9.608624 122.760231 -31.749834 42.288288 0.617343 8.507683 18.126461 -27.206596 -98.411705 -109.659508 8.506870 -14.156607 108.207947 3.768685 -3.898296 -2.791535 -8.776232 -14.676485 -36.271793 -8.612767 9.857194 113.453667 -4.120056 3.711674 -77.003014 -8.031756 10.036560 
143.100845 26.150520 143.100845 4.103344 -4.295459 0.765745 40.673191 5.092174 -33.608463 4.231660 -0.666958 -10.402931 -8.544922 -0.001505 -0.009645 -5.095223 23.401508 37.284981 2.000000 -2.000000 0.000000 16.620173 -45.634975 -6.200573 -60.132816 -0.539012 8.680462 -0.674919 -21.401463 -146.123627 -2.000000 2.000000 0.000000 -3.154641 125.645866 -25.300495 40.933014 0.622748 8.502878 18.038101 -28.549894 -100.048355 -110.579033 7.950212 -14.218970 105.230125 3.564091 -3.985901 -0.836220 -8.293987 -14.257867 -30.807589 -9.110869 9.067831 103.366478 -3.466334 3.988906 -77.606453 -9.452415 11.104516 
143.836792 27.833469 143.836792 6.089610 -6.127539 -0.272037 40.104042 5.080386 -35.096775 4.436480 -0.593721 -10.246100 -8.544922 -0.001505 -0.009645 -5.069691 24.851027 37.327778 2.000000 -2.000000 0.000000 20.291256 -47.035950 -7.956892 -57.133297 -0.549779 8.647420 -0.532926 -22.642563 -149.517654 -2.000000 2.000000 0.000000 1.345137 127.331627 -20.923042 40.155918 0.632576 8.490156 18.295017 -29.307617 -101.123886 -107.707993 7.989057 -13.562986 101.950478 3.349253 -4.064510 -1.294717 -7.353124 -13.082355 -26.244705 -9.227645 7.891801 93.378136 -2.754042 4.150354 -74.416161 -9.482811 11.285401 
144.543274 29.751696 144.543274 6.539840 -6.762747 -0.695681 40.081509 5.214124 -35.659298 4.842238 -0.526821 -10.162742 -8.544922 -0.001505 -0.009645 -4.611993 25.315090 36.865936 2.000000 -2.000000 0.000000 23.973335 -48.135006 -11.003490 -54.145866 -0.562834 8.618385 -0.740657 -24.330135 -150.992828 -2.000000 2.000000 0.000000 4.681712 127.900826 -17.697599 39.826698 0.629867 8.490330 18.821127 -29.586269 -101.759521 -102.250847 8.340219 -12.471458 98.213608 3.065556 -4.163626 -3.156969 -6.137817 -11.444337 -22.747095 -9.402548 7.137151 86.554031 -2.284736 4.175276 -71.049416 -9.147221 11.954726 
